<svg height="458pt" viewBox="0 -2 458.876 458" width="458pt" xmlns="http://www.w3.org/2000/svg"><path d="m236.0625 454.417969c-83.597656 0-144.914062-50.335938-160.953125-102.5-23.222656 22.734375-29.339844 60.09375-29.40625 60.507812-.429687 2.738281-2.433594 4.964844-5.113281 5.675781-2.675782.714844-5.523438-.21875-7.257813-2.378906-1.359375-1.695312-33.332031-43.003906-33.332031-173.398437 0-102.828125 76.152344-155.777344 100.425781-170.042969-14.21875-15.199219-49.601562-27.558594-63.488281-31.382812-2.828125-.777344-4.867188-3.234376-5.117188-6.152344-.25-2.917969 1.34375-5.6875 3.996094-6.933594 2.398438-1.113281 59.511719-27.375 162.957032-27.375 83.683593 0 149.761718 48 178.757812 95.128906 24.976562-22.464844 31.460938-62.078125 31.53125-62.503906.425781-2.660156 2.335938-4.839844 4.917969-5.609375s5.375.011719 7.183593 2.007813c1.539063 1.699218 37.710938 43.09375 37.710938 173.71875 0 87.445312-62.691406 146.15625-104.589844 170.128906 16.410156 17.394531 38.457032 28.402344 62.222656 31.066406 2.972657.230469 5.476563 2.320312 6.230469 5.207031.753907 2.886719-.40625 5.933594-2.886719 7.59375-2.300781 1.519531-57.59375 37.242188-183.789062 37.242188zm-156.824219-122.03125c3.386719 0 6.289063 2.421875 6.890625 5.753906 9.054688 50.273437 67.597656 102.273437 149.933594 102.273437 82.53125 0 133.714844-15.8125 158.363281-26.15625-28.226562-8.699218-50.523437-28.550781-56.597656-40.117187-.871094-1.65625-1.039063-3.59375-.472656-5.378906.570312-1.785157 1.828125-3.269531 3.496093-4.121094 38.636719-19.621094 104.023438-75.726563 104.023438-161.480469 0-85.414062-16-130.90625-26.070312-151.097656-5.3125 17.339844-16.703126 43.957031-39.261719 59.773438-1.636719 1.148437-3.691407 1.539062-5.636719 1.078124-1.949219-.460937-3.605469-1.738281-4.550781-3.5-24.53125-45.738281-88.375-94.972656-170.585938-94.972656-67.023437 0-114.472656 11.582032-138.65625 19.296875 19.480469 7.199219 47.4375 20.113281 56.796875 37.558594.90625 1.691406 1.078125 3.675781.480469 5.496094-.601563 1.820312-1.917969 3.3125-3.648437 4.136719-.996094.476562-99.742188 48.734374-99.742188 161.398437 0 83.921875 13.386719 129.054687 22.347656 149.859375 5.46875-17.347656 16.847656-43.085938 38.871094-58.53125 1.179688-.824219 2.582031-1.269531 4.019531-1.269531zm151.347657 63.441406c-.46875 0-.933594-.046875-1.390626-.136719-1.691406-.339844-42.117187-9.027344-97.660156-64.574218-32.359375-32.359376-43.414062-79.960938-28-113.820313-11.902344 1.628906-23.253906 6.039063-33.140625 12.867187-2.234375 1.632813-5.222656 1.792969-7.621093.40625-2.398438-1.382812-3.753907-4.050781-3.460938-6.804687.152344-1.367187 4.328125-34.207031 61.792969-91.667969 43.597656-43.601562 96.398437-36.839844 116.925781-31.972656-1.078125-11.023438-8.199219-27.109375-13.519531-36.453125-1.449219-2.550781-1.15625-5.730469.730469-7.972656 1.886718-2.242188 4.972656-3.074219 7.730468-2.082031 1.546875.566406 38.398438 14.207031 83.90625 59.695312 36 36 44.667969 84.753906 37.859375 118.585938 18.546875-.441407 35.863281-12.890626 36.0625-13.03125 2.179688-1.585938 5.074219-1.78125 7.445313-.5 2.371094 1.277343 3.796875 3.808593 3.664062 6.5-.070312 1.449218-2.398437 36.25-60.035156 93.882812-37.519531 37.519531-89.003906 37.289062-118.941406 30.097656.402344 12.898438 4.953125 25.324219 12.96875 35.4375 1.785156 2.074219 2.195312 5 1.054687 7.484375-1.140625 2.488281-3.625 4.082031-6.359375 4.082031zm-123.046876-192.710937c2.984376-.003907 5.960938.246093 8.902344.757812 2.351563.414062 4.328125 1.996094 5.246094 4.199219.917969 2.207031.652344 4.726562-.710938 6.6875-17.328124 24.945312-14.402343 71.582031 20.457032 106.445312 31.039062 31.039063 57.058594 46.617188 73.128906 54.167969-5.769531-14.3125-6.894531-29.5625-4.398438-37.601562.554688-1.792969 1.808594-3.289063 3.476563-4.148438 1.667969-.863281 3.609375-1.019531 5.394531-.433594 24.800782 8.089844 76.496094 12.0625 112.933594-24.378906 31.746094-31.746094 45.523438-55.71875 51.476562-69.925781-12.023437 5.804687-25.484374 7.972656-38.722656 6.226562-1.96875-.347656-3.699218-1.519531-4.746094-3.222656-1.050781-1.703125-1.320312-3.777344-.746093-5.691406 9.023437-29.875 2.773437-78-32.257813-113.015625-18.25-18.640625-38.910156-34.75-61.4375-47.902344 4.570313 11.425781 8.539063 25.703125 5.46875 35.882812-.554687 1.839844-1.839844 3.367188-3.550781 4.230469-1.714844.863281-3.707031.984375-5.511719.339844-2.546875-.898437-63.128906-21.601563-110.957031 26.234375-30.6875 30.6875-45.199219 53.601562-51.96875 67.570312 8.984375-4.019531 18.683594-6.203124 28.523437-6.421874zm123.039063 94.3125c-40.261719 0-72.902344-32.636719-72.90625-72.898438-.003906-40.265625 32.628906-72.910156 72.890625-72.917969 40.265625-.007812 72.914062 32.621094 72.925781 72.882813-.046875 40.246094-32.664062 72.863281-72.910156 72.90625zm0-131.816407c-32.535156 0-58.910156 26.378907-58.90625 58.917969.003906 32.535156 26.386719 58.90625 58.925781 58.898438 32.535156-.007813 58.902344-26.394532 58.890625-58.933594-.035156-32.519532-26.386719-58.871094-58.910156-58.910156zm0 0"/></svg>